<svg width="256" height="256" viewBox="0 0 256 256" fill="none" xmlns="http://www.w3.org/2000/svg">
<rect width="256" height="256" rx="20" fill="#C1D9FA"/>
<path d="M84.426 159.472C84.426 155.312 86.218 152.816 89.066 152.816C91.914 152.816 93.706 155.312 93.706 159.472C93.706 163.664 91.914 166.32 89.066 166.32C86.218 166.32 84.426 163.664 84.426 159.472ZM98.794 171.568C98.186 171.792 97.386 171.952 96.49 171.952C94.73 171.952 92.874 171.44 91.914 170C95.946 168.848 98.538 165.072 98.538 159.472C98.538 152.688 94.698 148.752 89.066 148.752C83.434 148.752 79.594 152.656 79.594 159.472C79.594 165.36 82.474 169.232 86.922 170.16C88.394 173.424 91.53 175.696 95.946 175.696C97.546 175.696 98.858 175.408 99.626 175.024L98.794 171.568ZM102.43 160.336C102.43 167.344 105.342 170.384 110.75 170.384C116.158 170.384 119.006 167.344 119.006 160.336V149.136H114.462V160.816C114.462 164.912 113.086 166.32 110.75 166.32C108.414 166.32 107.134 164.912 107.134 160.816V149.136H102.43V160.336ZM132.225 170.384C137.857 170.384 141.697 166.288 141.697 159.472C141.697 152.688 137.857 148.752 132.225 148.752C126.625 148.752 122.753 152.656 122.753 159.472C122.753 166.288 126.625 170.384 132.225 170.384ZM132.225 166.32C129.409 166.32 127.585 163.664 127.585 159.472C127.585 155.312 129.409 152.816 132.225 152.816C135.073 152.816 136.865 155.312 136.865 159.472C136.865 163.664 135.073 166.32 132.225 166.32ZM149.059 170H153.763V153.104H159.491V149.136H143.299V153.104H149.059V170ZM162.713 170H176.121V166.032H167.449V161.232H174.553V157.296H167.449V153.104H175.801V149.136H162.713V170ZM60.4493 181.88H62.8493C65.3133 181.88 66.6573 182.584 66.6573 184.632C66.6573 186.68 65.3133 187.736 62.8493 187.736H60.4493V181.88ZM72.2893 199L67.5853 190.648C69.7933 189.656 71.2973 187.704 71.2973 184.632C71.2973 179.672 67.6493 178.136 63.2333 178.136H55.7133V199H60.4493V191.48H63.0093L67.0093 199H72.2893ZM75.4008 199H88.8088V195.032H80.1368V190.232H87.2408V186.296H80.1368V182.104H88.4888V178.136H75.4008V199ZM96.6135 188.472C96.6135 184.312 98.4055 181.816 101.254 181.816C104.102 181.816 105.894 184.312 105.894 188.472C105.894 192.664 104.102 195.32 101.254 195.32C98.4055 195.32 96.6135 192.664 96.6135 188.472ZM110.982 200.568C110.374 200.792 109.574 200.952 108.678 200.952C106.918 200.952 105.062 200.44 104.102 199C108.134 197.848 110.726 194.072 110.726 188.472C110.726 181.688 106.885 177.752 101.254 177.752C95.6215 177.752 91.7815 181.656 91.7815 188.472C91.7815 194.36 94.6615 198.232 99.1095 199.16C100.582 202.424 103.718 204.696 108.134 204.696C109.734 204.696 111.046 204.408 111.814 204.024L110.982 200.568ZM114.617 189.336C114.617 196.344 117.529 199.384 122.937 199.384C128.345 199.384 131.193 196.344 131.193 189.336V178.136H126.649V189.816C126.649 193.912 125.273 195.32 122.937 195.32C120.601 195.32 119.321 193.912 119.321 189.816V178.136H114.617V189.336ZM135.932 199H149.34V195.032H140.668V190.232H147.772V186.296H140.668V182.104H149.02V178.136H135.932V199ZM152.057 196.376C154.201 198.36 157.081 199.384 159.801 199.384C164.761 199.384 167.641 196.376 167.641 192.92C167.641 189.976 166.041 188.28 163.513 187.256L160.857 186.168C159.033 185.432 157.657 184.984 157.657 183.704C157.657 182.52 158.713 181.816 160.313 181.816C161.977 181.816 163.289 182.424 164.665 183.48L167.033 180.504C165.241 178.712 162.713 177.752 160.313 177.752C155.993 177.752 152.889 180.504 152.889 183.96C152.889 187 154.937 188.792 157.113 189.656L159.801 190.808C161.625 191.576 162.809 191.992 162.809 193.304C162.809 194.552 161.849 195.32 159.897 195.32C158.169 195.32 156.249 194.424 154.777 193.144L152.057 196.376ZM174.591 199H179.295V182.104H185.023V178.136H168.831V182.104H174.591V199ZM186.088 196.376C188.232 198.36 191.112 199.384 193.832 199.384C198.792 199.384 201.672 196.376 201.672 192.92C201.672 189.976 200.072 188.28 197.544 187.256L194.888 186.168C193.064 185.432 191.688 184.984 191.688 183.704C191.688 182.52 192.744 181.816 194.344 181.816C196.008 181.816 197.32 182.424 198.696 183.48L201.064 180.504C199.272 178.712 196.744 177.752 194.344 177.752C190.024 177.752 186.92 180.504 186.92 183.96C186.92 187 188.968 188.792 191.144 189.656L193.832 190.808C195.656 191.576 196.84 191.992 196.84 193.304C196.84 194.552 195.88 195.32 193.928 195.32C192.2 195.32 190.28 194.424 188.808 193.144L186.088 196.376Z" fill="#2E56B8"/>
<path d="M54.19 214.1C53.75 213.94 53.03 213.74 52.21 213.74C49.53 213.74 48.55 215.46 48.55 217.56V218.1L47.23 218.2V220.38H48.55V228H51.49V220.38H53.27V218.08H51.49V217.48C51.49 216.46 51.91 216.06 52.63 216.06C52.95 216.06 53.31 216.14 53.65 216.26L54.19 214.1ZM54.0911 223.04C54.0911 226.34 56.4111 228.24 58.9311 228.24C61.4311 228.24 63.7511 226.34 63.7511 223.04C63.7511 219.74 61.4311 217.84 58.9311 217.84C56.4111 217.84 54.0911 219.74 54.0911 223.04ZM57.1111 223.04C57.1111 221.32 57.7111 220.22 58.9311 220.22C60.1311 220.22 60.7511 221.32 60.7511 223.04C60.7511 224.76 60.1311 225.86 58.9311 225.86C57.7111 225.86 57.1111 224.76 57.1111 223.04ZM65.7648 228H68.7048V222.24C69.2248 220.9 70.1448 220.42 70.8848 220.42C71.3048 220.42 71.6048 220.48 71.9648 220.58L72.4448 218.04C72.1648 217.92 71.8248 217.84 71.2648 217.84C70.2448 217.84 69.1648 218.48 68.4448 219.82H68.3648L68.1648 218.08H65.7648V228ZM79.2738 228H82.9138L84.1538 222.08C84.3538 221.08 84.5138 220.02 84.6738 219.06H84.7538C84.8938 220.02 85.0738 221.08 85.2738 222.08L86.5538 228H90.2538L92.5738 214.96H89.7538L88.8538 221.06C88.6738 222.4 88.4938 223.78 88.3338 225.18H88.2538C87.9938 223.78 87.7338 222.38 87.4738 221.06L86.0538 214.96H83.5538L82.1538 221.06C81.8938 222.42 81.6338 223.8 81.3938 225.18H81.3138C81.1338 223.8 80.9538 222.42 80.7738 221.06L79.8738 214.96H76.8538L79.2738 228ZM93.5442 223.04C93.5442 226.34 95.8642 228.24 98.3842 228.24C100.884 228.24 103.204 226.34 103.204 223.04C103.204 219.74 100.884 217.84 98.3842 217.84C95.8642 217.84 93.5442 219.74 93.5442 223.04ZM96.5642 223.04C96.5642 221.32 97.1642 220.22 98.3842 220.22C99.5842 220.22 100.204 221.32 100.204 223.04C100.204 224.76 99.5842 225.86 98.3842 225.86C97.1642 225.86 96.5642 224.76 96.5642 223.04ZM104.638 223.04C104.638 226.34 106.958 228.24 109.478 228.24C111.978 228.24 114.298 226.34 114.298 223.04C114.298 219.74 111.978 217.84 109.478 217.84C106.958 217.84 104.638 219.74 104.638 223.04ZM107.658 223.04C107.658 221.32 108.258 220.22 109.478 220.22C110.678 220.22 111.298 221.32 111.298 223.04C111.298 224.76 110.678 225.86 109.478 225.86C108.258 225.86 107.658 224.76 107.658 223.04ZM115.912 221.56C115.912 225.94 118.672 228.24 122.052 228.24C123.672 228.24 125.112 227.58 126.192 226.32L124.572 224.54C123.932 225.24 123.172 225.7 122.092 225.7C120.192 225.7 118.932 224.14 118.932 221.46C118.932 218.84 120.352 217.26 122.172 217.26C123.092 217.26 123.712 217.64 124.372 218.24L125.992 216.42C125.112 215.52 123.752 214.72 122.132 214.72C118.772 214.72 115.912 217.24 115.912 221.56ZM127.333 223.04C127.333 226.34 129.653 228.24 132.173 228.24C134.673 228.24 136.993 226.34 136.993 223.04C136.993 219.74 134.673 217.84 132.173 217.84C129.653 217.84 127.333 219.74 127.333 223.04ZM130.353 223.04C130.353 221.32 130.953 220.22 132.173 220.22C133.373 220.22 133.993 221.32 133.993 223.04C133.993 224.76 133.373 225.86 132.173 225.86C130.953 225.86 130.353 224.76 130.353 223.04ZM139.007 228H141.947V221.3C142.567 220.66 143.147 220.34 143.627 220.34C144.467 220.34 144.847 220.78 144.847 222.22V228H147.787V221.3C148.427 220.66 148.987 220.34 149.487 220.34C150.327 220.34 150.707 220.78 150.707 222.22V228H153.647V221.84C153.647 219.36 152.687 217.84 150.547 217.84C149.227 217.84 148.307 218.6 147.427 219.5C146.927 218.44 146.087 217.84 144.687 217.84C143.387 217.84 142.507 218.54 141.687 219.36H141.607L141.407 218.08H139.007V228ZM156.155 228H159.095V221.3C159.715 220.66 160.295 220.34 160.775 220.34C161.615 220.34 161.995 220.78 161.995 222.22V228H164.935V221.3C165.575 220.66 166.135 220.34 166.635 220.34C167.475 220.34 167.855 220.78 167.855 222.22V228H170.795V221.84C170.795 219.36 169.835 217.84 167.695 217.84C166.375 217.84 165.455 218.6 164.575 219.5C164.075 218.44 163.235 217.84 161.835 217.84C160.535 217.84 159.655 218.54 158.835 219.36H158.755L158.555 218.08H156.155V228ZM172.724 223.04C172.724 226.32 174.904 228.24 177.744 228.24C178.924 228.24 180.244 227.82 181.264 227.12L180.284 225.34C179.564 225.78 178.884 226 178.144 226C176.824 226 175.824 225.34 175.564 223.84H181.504C181.564 223.6 181.624 223.12 181.624 222.6C181.624 219.9 180.224 217.84 177.404 217.84C175.024 217.84 172.724 219.82 172.724 223.04ZM175.544 222.02C175.744 220.7 176.544 220.08 177.464 220.08C178.644 220.08 179.124 220.88 179.124 222.02H175.544ZM183.655 228H186.595V222.24C187.115 220.9 188.035 220.42 188.775 220.42C189.195 220.42 189.495 220.48 189.855 220.58L190.335 218.04C190.055 217.92 189.715 217.84 189.155 217.84C188.135 217.84 187.055 218.48 186.335 219.82H186.255L186.055 218.08H183.655V228ZM190.849 223.04C190.849 226.34 192.989 228.24 195.749 228.24C196.829 228.24 198.089 227.84 199.049 227L197.869 225.14C197.389 225.52 196.809 225.86 196.089 225.86C194.809 225.86 193.869 224.76 193.869 223.04C193.869 221.32 194.769 220.22 196.189 220.22C196.649 220.22 197.089 220.4 197.569 220.8L198.909 218.98C198.249 218.3 197.229 217.84 196.009 217.84C193.269 217.84 190.849 219.74 190.849 223.04ZM199.618 223.04C199.618 226.32 201.798 228.24 204.638 228.24C205.818 228.24 207.138 227.82 208.158 227.12L207.178 225.34C206.458 225.78 205.778 226 205.038 226C203.718 226 202.718 225.34 202.458 223.84H208.398C208.458 223.6 208.518 223.12 208.518 222.6C208.518 219.9 207.118 217.84 204.298 217.84C201.918 217.84 199.618 219.82 199.618 223.04ZM202.438 222.02C202.638 220.7 203.438 220.08 204.358 220.08C205.538 220.08 206.018 220.88 206.018 222.02H202.438Z" fill="#455359"/>
<rect x="75.5" y="22.5" width="106" height="106" fill="white" stroke="#2F80ED"/>
<path d="M162.864 49.0634L150.677 48.2157L150.948 47.3482C151.167 46.6056 151.201 45.8253 151.048 45.0682C150.895 44.3111 150.558 43.5976 150.064 42.9832C149.571 42.3689 148.934 41.8703 148.202 41.5263C147.471 41.1824 146.665 41.0022 145.848 41H133.179C132.359 40.9978 131.551 41.192 130.832 41.5643C130.113 41.9366 129.505 42.4749 129.067 43.1288C128.628 43.7828 128.373 44.5309 128.324 45.3033C128.276 46.0758 128.436 46.8472 128.789 47.5454L130.357 50.8969L129.312 51.1532L126.406 51.8826L121.556 53.0655L118.65 53.7752L113.821 54.9581L110.916 55.6679L98.9162 58.6251C93.9408 59.9657 89.7599 62.7849 90.0107 67.7334C90.1682 70.2102 91.3102 72.5399 93.209 74.2575C95.1077 75.9751 97.6235 76.9542 100.254 76.9994H159.06C160.142 77.0125 161.215 76.8143 162.211 76.4172C163.208 76.02 164.107 75.4326 164.851 74.6918C165.596 73.951 166.169 73.073 166.536 72.113C166.903 71.1529 167.055 70.1316 166.983 69.1134L166.167 52.2769C166.107 51.4598 165.743 50.689 165.139 50.1008C164.534 49.5127 163.728 49.1452 162.864 49.0634Z" fill="#2F80ED"/>
<path opacity="0.3" d="M136.908 54.4985L133.992 55.2326L126.287 51.7805L129.267 51.0465L136.908 54.4985Z" fill="white"/>
<path opacity="0.3" d="M128.942 56.1798L126.055 56.9069L118.322 53.4284L121.251 52.7209L128.942 56.1798Z" fill="white"/>
<path opacity="0.3" d="M120.977 58.7015L118.351 59.4186L111.241 55.9302L113.905 55.2325L120.977 58.7015Z" fill="white"/>
<path opacity="0.3" d="M166.773 64.5239L166.982 69.1409C167.055 70.1555 166.903 71.1732 166.535 72.13C166.168 73.0867 165.594 73.9617 164.849 74.6999C164.104 75.4381 163.204 76.0235 162.206 76.4192C161.208 76.815 160.134 77.0125 159.051 76.9994H149.299C149.799 73.4984 151.645 70.2899 154.49 67.9777C157.334 65.6655 160.981 64.4092 164.743 64.4454C165.421 64.4318 166.099 64.458 166.773 64.5239Z" fill="white"/>
<path d="M89.2748 103.008L89.4347 102.317C89.6659 101.364 89.9032 100.165 90.1101 99.1513H90.162C90.3448 100.15 90.5224 101.364 90.7064 102.317L90.832 103.008H89.2748ZM91.5463 107.173H93.9081L91.5863 97.1844H88.8871L86.0701 107.173H88.354L88.8218 105.052H91.1836L91.5463 107.173Z" fill="#2F80ED"/>
<path d="M94.7124 107.173H97.3337C99.7734 107.173 101.576 105.667 101.663 102.132C101.751 98.5981 100.021 97.1844 97.4515 97.1844H94.96L94.7124 107.173ZM96.997 105.052L97.1394 99.305H97.2692C98.489 99.305 99.4371 99.7967 99.3792 102.132C99.3213 104.468 98.3466 105.052 97.1268 105.052H96.997Z" fill="#2F80ED"/>
<path d="M103.038 107.173H105.66C108.099 107.173 109.901 105.667 109.989 102.132C110.077 98.5981 108.347 97.1844 105.777 97.1844H103.286L103.038 107.173ZM105.323 105.052L105.465 99.305H105.595C106.815 99.305 107.763 99.7967 107.705 102.132C107.647 104.468 106.672 105.052 105.453 105.052H105.323Z" fill="#2F80ED"/>
<path d="M115.698 107.173H117.93L118.123 99.3972H120.355L120.41 97.1844H113.714L113.659 99.3972H115.891L115.698 107.173Z" fill="#2F80ED"/>
<path d="M124.572 107.357C126.908 107.357 128.539 105.421 128.62 102.132C128.701 98.8593 127.164 97 124.829 97C122.493 97 120.864 98.844 120.782 102.132C120.701 105.421 122.236 107.357 124.572 107.357ZM124.628 105.083C123.616 105.083 123.021 103.946 123.066 102.132C123.111 100.319 123.76 99.2742 124.772 99.2742C125.784 99.2742 126.381 100.319 126.336 102.132C126.291 103.946 125.64 105.083 124.628 105.083Z" fill="#2F80ED"/>
<path d="M136.43 99.2742C137.442 99.2742 138.039 100.319 137.994 102.132C137.949 103.946 137.298 105.083 136.286 105.083C135.274 105.083 134.679 103.946 134.724 102.132C134.769 100.319 135.418 99.2742 136.43 99.2742ZM140.295 107.726C140.033 107.833 139.693 107.91 139.33 107.91C138.694 107.91 137.946 107.741 137.572 107.111C139.171 106.496 140.213 104.745 140.278 102.132C140.359 98.8593 138.822 97 136.486 97C134.15 97 132.521 98.844 132.44 102.132C132.371 104.914 133.468 106.742 135.221 107.219C135.829 108.863 137.124 110 139.019 110C139.732 110 140.294 109.846 140.637 109.631L140.295 107.726Z" fill="#2F80ED"/>
<path d="M141.783 102.348C141.698 105.759 142.801 107.357 145.162 107.357C147.524 107.357 148.654 105.759 148.738 102.348L148.866 97.1844H146.712L146.577 102.655C146.532 104.437 146.101 105.083 145.219 105.083C144.336 105.083 143.963 104.437 144.007 102.655L144.143 97.1844H141.911L141.783 102.348Z" fill="#2F80ED"/>
<path d="M153.985 107.357C156.321 107.357 157.952 105.421 158.033 102.132C158.115 98.8593 156.578 97 154.242 97C151.906 97 150.277 98.844 150.195 102.132C150.114 105.421 151.649 107.357 153.985 107.357ZM154.041 105.083C153.029 105.083 152.434 103.946 152.479 102.132C152.524 100.319 153.173 99.2742 154.185 99.2742C155.198 99.2742 155.794 100.319 155.75 102.132C155.705 103.946 155.054 105.083 154.041 105.083Z" fill="#2F80ED"/>
<path d="M160.774 107.173H163.006L163.199 99.3972H165.431L165.486 97.1844H158.79L158.735 99.3972H160.967L160.774 107.173Z" fill="#2F80ED"/>
<path d="M166.49 107.173H172.07L172.125 104.96H168.777L168.821 103.177H171.572L171.627 100.965H168.876L168.915 99.3972H172.133L172.188 97.1844H166.738L166.49 107.173Z" fill="#2F80ED"/>
</svg>
